<svg width="16" height="16" viewBox="0 0 16 16" fill="none" xmlns="http://www.w3.org/2000/svg">
<g id="vuesax/bulk/call-calling">
<g id="call-calling">
<path id="Vector" d="M11.7454 7.16771C11.4587 7.16771 11.232 6.93437 11.232 6.65437C11.232 6.40771 10.9854 5.89438 10.572 5.44771C10.1654 5.01438 9.7187 4.76104 9.34536 4.76104C9.0587 4.76104 8.83203 4.52771 8.83203 4.24771C8.83203 3.96771 9.06536 3.73438 9.34536 3.73438C10.012 3.73438 10.712 4.09438 11.3254 4.74104C11.8987 5.34771 12.2654 6.10104 12.2654 6.64771C12.2654 6.93438 12.032 7.16771 11.7454 7.16771Z" fill="#C1C2C3"/>
<path id="Vector_2" d="M14.1532 7.16536C13.8665 7.16536 13.6398 6.93203 13.6398 6.65203C13.6398 4.28536 11.7132 2.36536 9.35318 2.36536C9.06651 2.36536 8.83984 2.13203 8.83984 1.85203C8.83984 1.57203 9.06651 1.33203 9.34651 1.33203C12.2798 1.33203 14.6665 3.7187 14.6665 6.65203C14.6665 6.93203 14.4332 7.16536 14.1532 7.16536Z" fill="#C1C2C3"/>
<path id="Vector_3" opacity="0.4" d="M7.8587 9.47203L5.6787 11.652C5.4387 11.4387 5.20536 11.2187 4.9787 10.992C4.29203 10.2987 3.67203 9.57203 3.1187 8.81203C2.57203 8.05203 2.13203 7.29203 1.81203 6.5387C1.49203 5.7787 1.33203 5.05203 1.33203 4.3587C1.33203 3.90536 1.41203 3.47203 1.57203 3.07203C1.73203 2.66536 1.98536 2.29203 2.3387 1.9587C2.76536 1.5387 3.23203 1.33203 3.72536 1.33203C3.91203 1.33203 4.0987 1.37203 4.26536 1.45203C4.4387 1.53203 4.59203 1.65203 4.71203 1.82536L6.2587 4.00536C6.3787 4.17203 6.46536 4.32536 6.52536 4.47203C6.58536 4.61203 6.6187 4.75203 6.6187 4.8787C6.6187 5.0387 6.57203 5.1987 6.4787 5.35203C6.39203 5.50536 6.26536 5.66536 6.10536 5.82536L5.5987 6.35203C5.52536 6.42536 5.49203 6.51203 5.49203 6.6187C5.49203 6.67203 5.4987 6.7187 5.51203 6.77203C5.53203 6.82536 5.55203 6.86536 5.56536 6.90536C5.68537 7.12536 5.89203 7.41203 6.18536 7.7587C6.48536 8.10536 6.80536 8.4587 7.15203 8.81203C7.39203 9.04536 7.62536 9.27203 7.8587 9.47203Z" fill="#C1C2C3"/>
<path id="Vector_4" d="M14.6451 12.2194C14.6451 12.406 14.6118 12.5994 14.5451 12.786C14.5251 12.8394 14.5051 12.8927 14.4784 12.946C14.3651 13.186 14.2184 13.4127 14.0251 13.626C13.6984 13.986 13.3384 14.246 12.9318 14.4127C12.9251 14.4127 12.9184 14.4194 12.9118 14.4194C12.5184 14.5794 12.0918 14.666 11.6318 14.666C10.9518 14.666 10.2251 14.506 9.45844 14.1794C8.69177 13.8527 7.9251 13.4127 7.1651 12.8594C6.9051 12.666 6.6451 12.4727 6.39844 12.266L8.57844 10.086C8.7651 10.226 8.93177 10.3327 9.07177 10.406C9.1051 10.4194 9.1451 10.4394 9.19177 10.4594C9.2451 10.4794 9.29844 10.486 9.35844 10.486C9.47177 10.486 9.55844 10.446 9.63177 10.3727L10.1384 9.87271C10.3051 9.70604 10.4651 9.57938 10.6184 9.49938C10.7718 9.40604 10.9251 9.35938 11.0918 9.35938C11.2184 9.35938 11.3518 9.38604 11.4984 9.44604C11.6451 9.50604 11.7984 9.59271 11.9651 9.70604L14.1718 11.2727C14.3451 11.3927 14.4651 11.5327 14.5384 11.6994C14.6051 11.866 14.6451 12.0327 14.6451 12.2194Z" fill="#C1C2C3"/>
</g>
</g>
</svg>
