<svg width="130" height="129" viewBox="0 0 130 129" fill="none" xmlns="http://www.w3.org/2000/svg">
<g id="icon-4">
<circle id="Ellipse-5" cx="65" cy="64.5" r="64.5" fill="#F4F8FF"/>
<g id="readed-mail 1">
<g id="Group">
<path id="Vector" opacity="0.3" d="M44.7174 90.5208C44.0187 90.5208 43.3199 90.2413 42.7609 89.6823L37.1706 84.092C36.0525 82.974 36.0525 81.2969 37.1706 80.1788C38.2886 79.0608 40.1055 79.0608 41.0838 80.1788L44.7174 83.8125L53.9414 74.5885C55.0595 73.4705 56.7365 73.4705 57.8546 74.5885C58.9727 75.7066 58.9727 77.3837 57.8546 78.5017L46.674 89.6823C46.115 90.2413 45.4162 90.5208 44.7174 90.5208Z" fill="#377DFF"/>
<path id="Vector_2" fill-rule="evenodd" clip-rule="evenodd" d="M68.3701 82.4987C67.6197 71.0974 58.1342 62.082 46.543 62.082C45.0447 62.082 43.5816 62.2327 42.168 62.5196V50.4154C42.168 47.1937 44.7796 44.582 48.0013 44.582H88.8346C92.0563 44.582 94.668 47.1937 94.668 50.4154V76.6654C94.668 79.887 92.0563 82.4987 88.8346 82.4987H68.3701ZM86.3392 49.9477L68.418 59.5976L50.4967 49.9477C49.433 49.3749 48.1064 49.7729 47.5336 50.8366C46.9608 51.9003 47.3588 53.227 48.4225 53.7997L67.3809 64.0081C68.0283 64.3567 68.8076 64.3567 69.4551 64.0081L88.4134 53.7997C89.4771 53.227 89.8751 51.9003 89.3023 50.8366C88.7296 49.7729 87.4029 49.3749 86.3392 49.9477Z" fill="#377DFF"/>
</g>
</g>
</g>
</svg>
