<svg width="20" height="20" viewBox="0 0 20 20" fill="none" xmlns="http://www.w3.org/2000/svg">
<g id="vuesax/bulk/lock">
<g id="lock">
<path id="Vector" opacity="0.4" d="M9.99896 14.4589C10.7491 14.4589 11.3573 13.8507 11.3573 13.1005C11.3573 12.3503 10.7491 11.7422 9.99896 11.7422C9.24877 11.7422 8.64062 12.3503 8.64062 13.1005C8.64062 13.8507 9.24877 14.4589 9.99896 14.4589Z" fill="#C1C2C3"/>
<path id="Vector_2" d="M13.8763 7.86719H6.1263C2.70964 7.86719 1.66797 8.90885 1.66797 12.3255V13.8755C1.66797 17.2922 2.70964 18.3339 6.1263 18.3339H13.8763C17.293 18.3339 18.3346 17.2922 18.3346 13.8755V12.3255C18.3346 8.90885 17.293 7.86719 13.8763 7.86719ZM10.0013 15.6172C8.60964 15.6172 7.48464 14.4839 7.48464 13.1005C7.48464 11.7172 8.60964 10.5839 10.0013 10.5839C11.393 10.5839 12.518 11.7172 12.518 13.1005C12.518 14.4839 11.393 15.6172 10.0013 15.6172Z" fill="#C1C2C3"/>
<path id="Vector_3" opacity="0.4" d="M5.93229 7.8763V6.9013C5.93229 4.45964 6.62396 2.83464 9.99896 2.83464C13.374 2.83464 14.0656 4.45964 14.0656 6.9013V7.8763C14.4906 7.88463 14.874 7.9013 15.2323 7.9513V6.9013C15.2323 4.6513 14.6906 1.66797 9.99896 1.66797C5.30729 1.66797 4.76562 4.6513 4.76562 6.9013V7.94297C5.11562 7.9013 5.50729 7.8763 5.93229 7.8763Z" fill="#C1C2C3"/>
</g>
</g>
</svg>
