<svg width="20" height="20" viewBox="0 0 20 20" fill="none" xmlns="http://www.w3.org/2000/svg">
<g id="vuesax/bulk/profile">
<g id="profile">
<path id="Vector" opacity="0.4" d="M10.0013 1.66797C7.81797 1.66797 6.04297 3.44297 6.04297 5.6263C6.04297 7.76797 7.71797 9.5013 9.9013 9.5763C9.96797 9.56797 10.0346 9.56797 10.0846 9.5763C10.1013 9.5763 10.1096 9.5763 10.1263 9.5763C10.1346 9.5763 10.1346 9.5763 10.143 9.5763C12.2763 9.5013 13.9513 7.76797 13.9596 5.6263C13.9596 3.44297 12.1846 1.66797 10.0013 1.66797Z" fill="#C1C2C3"/>
<path id="Vector_2" d="M14.2328 11.7914C11.9078 10.2414 8.11615 10.2414 5.77448 11.7914C4.71615 12.4997 4.13281 13.4581 4.13281 14.4831C4.13281 15.5081 4.71615 16.4581 5.76615 17.1581C6.93281 17.9414 8.46615 18.3331 9.99948 18.3331C11.5328 18.3331 13.0661 17.9414 14.2328 17.1581C15.2828 16.4497 15.8661 15.4997 15.8661 14.4664C15.8578 13.4414 15.2828 12.4914 14.2328 11.7914Z" fill="#C1C2C3"/>
</g>
</g>
</svg>
