<svg width="20" height="20" viewBox="0 0 20 20" fill="none" xmlns="http://www.w3.org/2000/svg">
<g id="vuesax/bulk/sms">
<g id="sms">
<path id="Vector" opacity="0.4" d="M14.168 17.0846H5.83464C3.33464 17.0846 1.66797 15.8346 1.66797 12.918V7.08464C1.66797 4.16797 3.33464 2.91797 5.83464 2.91797H14.168C16.668 2.91797 18.3346 4.16797 18.3346 7.08464V12.918C18.3346 15.8346 16.668 17.0846 14.168 17.0846Z" fill="#C1C2C3"/>
<g id="Group">
<path id="Vector_2" d="M10.001 10.7259C9.30095 10.7259 8.59262 10.5093 8.05096 10.0676L5.44262 7.98429C5.17595 7.76762 5.12596 7.37595 5.34262 7.10928C5.55929 6.84262 5.95096 6.79262 6.21763 7.00929L8.82595 9.09262C9.45928 9.60096 10.5343 9.60096 11.1676 9.09262L13.776 7.00929C14.0426 6.79262 14.4426 6.83428 14.651 7.10928C14.8676 7.37595 14.826 7.77595 14.551 7.98429L11.9426 10.0676C11.4093 10.5093 10.701 10.7259 10.001 10.7259Z" fill="#C1C2C3"/>
</g>
</g>
</g>
</svg>
